<svg width="97" height="100" viewBox="0 0 97 100" fill="none" xmlns="http://www.w3.org/2000/svg">
<g clip-path="url(#clip0)">
<path d="M96.242 83.3333C96.242 92.5 89.0238 100 80.2016 100H16.0403C7.21815 100 0 92.5 0 83.3333V16.6667C0 7.5 7.21815 0 16.0403 0H80.2016C89.0238 0 96.242 7.5 96.242 16.6667V83.3333Z" fill="#563D7C"/>
<path d="M26.1517 21.7322H53.436C58.4683 21.7322 62.5098 22.925 65.5449 25.3269C68.58 27.7289 70.1054 31.34 70.1054 36.193C70.1054 39.1341 69.4134 41.6505 68.0296 43.742C66.6457 45.8335 64.6642 47.4675 62.0852 48.6113V48.7747C65.5449 49.5426 68.1711 51.242 69.9481 53.8727C71.7251 56.5198 72.6215 59.8204 72.6215 63.8073C72.6215 66.0949 72.2284 68.2354 71.4421 70.2126C70.6558 72.206 69.4292 73.9217 67.7465 75.3596C66.0639 76.7975 63.9251 77.9413 61.2989 78.791C58.6727 79.6407 55.559 80.0655 51.9421 80.0655H26.1517V21.7322ZM35.9804 46.1603H52.0207C54.3796 46.1603 56.3453 45.474 57.9179 44.0688C59.4905 42.6636 60.2767 40.6701 60.2767 38.0557C60.2767 35.1145 59.5691 33.0394 58.1538 31.8466C56.7384 30.6537 54.6941 30.0492 52.0207 30.0492H35.9804V46.1603ZM35.9804 71.7322H53.3574C56.3453 71.7322 58.6727 70.9315 60.3082 69.3139C61.9594 67.7126 62.7929 65.425 62.7929 62.4838C62.7929 59.5917 61.9751 57.3858 60.3082 55.8171C58.6413 54.2485 56.3453 53.4969 53.3574 53.4969H35.9804V71.7322Z" fill="white"/>
</g>
<defs>
<clipPath id="clip0">
<rect width="96.242" height="100" fill="white"/>
</clipPath>
</defs>
</svg>
